<svg width="68" height="69" viewBox="0 0 68 69" fill="none" xmlns="http://www.w3.org/2000/svg">
<path d="M25.9184 23.9076C25.9184 26.2049 23.6569 19.7479 20.8673 19.7479C18.0777 19.7479 15.8163 26.2049 15.8163 23.9076C15.8163 21.6102 18.0777 19.7479 20.8673 19.7479C23.6569 19.7479 25.9184 21.6102 25.9184 23.9076Z" fill="black"/>
<path d="M52.1837 23.9076C52.1837 26.2049 49.9223 19.7479 47.1327 19.7479C44.3431 19.7479 42.0816 26.2049 42.0816 23.9076C42.0816 21.6102 44.3431 19.7479 47.1327 19.7479C49.9223 19.7479 52.1837 21.6102 52.1837 23.9076Z" fill="black"/>
<path d="M4.36735 37.5086L3.37476 37.3871L3.36555 37.4623L3.36778 37.538L4.36735 37.5086ZM5.0701 61.3445L4.07053 61.374L4.0993 62.3498L5.07552 62.3445L5.0701 61.3445ZM19.1251 31.0192L18.9692 32.007L19.0467 32.0192H19.1251V31.0192ZM6.14995 56.4909C5.6135 56.6222 5.2851 57.1636 5.41644 57.7C5.54778 58.2364 6.08912 58.5648 6.62556 58.4335L6.14995 56.4909ZM19.807 51.0865C19.9615 50.5563 19.657 50.0012 19.1267 49.8467C18.5965 49.6921 18.0414 49.9967 17.8869 50.5269L19.807 51.0865ZM8.08163 68C8.08163 68.5523 8.52935 69 9.08163 69C9.63392 69 10.0816 68.5523 10.0816 68H8.08163ZM10.0816 61.8992C10.0816 61.3469 9.63392 60.8992 9.08163 60.8992C8.52935 60.8992 8.08163 61.3469 8.08163 61.8992H10.0816ZM9.77422 66.7229C9.22204 66.7123 8.76585 67.1514 8.75529 67.7036C8.74473 68.2558 9.1838 68.712 9.73599 68.7225L9.77422 66.7229ZM55.551 48.5883L54.5793 48.3523L55.551 48.5883ZM57.0972 2H58.0972V0.841322L56.951 1.01075L57.0972 2ZM48.1429 6.99161V7.99161C48.5878 7.99161 48.9793 7.69758 49.1033 7.27022C49.2272 6.84285 49.0539 6.38498 48.678 6.14685L48.1429 6.99161ZM10.7755 28.0672C10.7755 28.6195 11.2232 29.0672 11.7755 29.0672C12.3278 29.0672 12.7755 28.6195 12.7755 28.0672H10.7755ZM11.7755 2L11.912 1.00935L10.7755 0.85281V2H11.7755ZM21.2041 6.9916L20.6957 6.13046C20.3075 6.35963 20.1206 6.82022 20.2394 7.25509C20.3582 7.68997 20.7533 7.9916 21.2041 7.9916V6.9916ZM13.1083 9.67634C12.5561 9.68411 12.1147 10.1381 12.1225 10.6903C12.1303 11.2425 12.5842 11.6839 13.1365 11.6761L13.1083 9.67634ZM56.2385 11.6762C56.7908 11.6684 57.2321 11.2144 57.2244 10.6622C57.2166 10.11 56.7626 9.66859 56.2104 9.67636L56.2385 11.6762ZM56.2245 9.59664C55.6722 9.59664 55.2245 10.0444 55.2245 10.5966C55.2245 11.1489 55.6722 11.5966 56.2245 11.5966V9.59664ZM68 6.15966C68 5.60738 67.5523 5.15966 67 5.15966C66.4477 5.15966 66 5.60738 66 6.15966H68ZM11.7755 11.8739C12.3278 11.8739 12.7755 11.4262 12.7755 10.8739C12.7755 10.3217 12.3278 9.87395 11.7755 9.87395V11.8739ZM2 6.43697C2 5.88469 1.55228 5.43697 1 5.43697C0.447715 5.43697 0 5.88469 0 6.43697H2ZM4.83229 51.222C4.29585 51.3533 3.96745 51.8946 4.09879 52.4311C4.23012 52.9675 4.77147 53.2959 5.30791 53.1646L4.83229 51.222ZM20.5098 42.4899C20.6643 41.9596 20.3597 41.4045 19.8295 41.25C19.2993 41.0955 18.7442 41.4001 18.5896 41.9303L20.5098 42.4899ZM3.36778 37.538L4.07053 61.374L6.06966 61.3151L5.36691 37.4791L3.36778 37.538ZM5.07552 62.3445C12.9072 62.3021 19.5321 60.0834 23.5175 56.8524L22.258 55.2988C18.7181 58.1687 12.5763 60.3038 5.06467 60.3446L5.07552 62.3445ZM23.5175 56.8524C27.5691 53.5677 29.6122 47.9794 29.6122 42.8748H27.6122C27.6122 47.5332 25.7317 52.4827 22.258 55.2988L23.5175 56.8524ZM29.6122 42.8748C29.6122 40.4898 29.6317 37.2711 28.3194 34.6664C27.6453 33.3285 26.6204 32.1455 25.0899 31.3079C23.571 30.4767 21.6159 30.0192 19.1251 30.0192V32.0192C21.3779 32.0192 22.9804 32.4334 24.1298 33.0624C25.2676 33.685 26.0215 34.5506 26.5333 35.5663C27.5928 37.6691 27.6122 40.3781 27.6122 42.8748H29.6122ZM19.281 30.0314C16.7537 29.6325 13.0784 29.8319 9.91598 30.8812C6.79951 31.9154 3.79902 33.9213 3.37476 37.3871L5.35994 37.6301C5.63842 35.3552 7.64503 33.7421 10.5459 32.7795C13.4008 31.8321 16.753 31.6571 18.9692 32.007L19.281 30.0314ZM6.62556 58.4335C11.6281 57.2087 14.6969 56.0946 16.6167 54.9436C17.5896 54.3604 18.2941 53.7524 18.8073 53.092C19.3243 52.4268 19.613 51.752 19.807 51.0865L17.8869 50.5269C17.7441 51.0169 17.553 51.4468 17.2281 51.8648C16.8995 52.2876 16.4002 52.7415 15.5884 53.2283C13.9388 54.2172 11.1148 55.2753 6.14995 56.4909L6.62556 58.4335ZM10.0816 68V61.8992H8.08163V68H10.0816ZM9.73599 68.7225C20.4041 68.9265 30.9381 68.5176 39.3627 65.8119C47.8406 63.0892 54.2958 57.9947 56.5228 48.8243L54.5793 48.3523C52.5636 56.6524 46.7807 61.329 38.7512 63.9077C30.6684 66.5036 20.4258 66.9266 9.77422 66.7229L9.73599 68.7225ZM56.5228 48.8243C56.799 47.6869 57.0255 45.414 57.2163 42.705C57.4096 39.9609 57.5718 36.6739 57.7021 33.4458C57.9626 26.9941 58.0972 20.7388 58.0972 19.4706H56.0972C56.0972 20.6982 55.9639 26.9219 55.7038 33.3651C55.5738 36.5845 55.4126 39.849 55.2213 42.5645C55.0275 45.315 54.8082 47.4098 54.5793 48.3523L56.5228 48.8243ZM58.0972 19.4706V2H56.0972V19.4706H58.0972ZM56.951 1.01075C54.724 1.33993 51.5178 2.04856 49.2796 2.98384C48.7149 3.21981 48.1868 3.4804 47.7414 3.76717C47.309 4.04565 46.8846 4.39292 46.6064 4.82812C46.3033 5.30221 46.1672 5.9036 46.4106 6.52926C46.6281 7.08838 47.0909 7.50898 47.6077 7.83637L48.678 6.14685C48.3193 5.91963 48.2685 5.78849 48.2746 5.80418C48.3066 5.88641 48.2613 5.95268 48.2915 5.90536C48.3466 5.81916 48.4981 5.65874 48.8243 5.44868C49.1376 5.24691 49.5509 5.03808 50.0508 4.8292C52.0709 3.98506 55.093 3.30712 57.2435 2.98925L56.951 1.01075ZM24.9184 23.9076C24.9184 24.0228 24.9102 24.0497 24.9153 24.0259C24.9183 24.0125 24.9317 23.9538 24.9721 23.8756C25.0126 23.7974 25.1018 23.6587 25.2746 23.5475C25.703 23.2718 26.102 23.4596 26.1883 23.509C26.2785 23.5607 26.3067 23.6042 26.2627 23.5556C26.1878 23.4728 26.0676 23.3098 25.8819 23.0375C25.7204 22.8008 25.4847 22.4446 25.2625 22.122C24.7988 21.4487 24.205 20.6394 23.5192 19.9931C22.8523 19.3647 21.9494 18.7479 20.8673 18.7479V20.7479C21.1801 20.7479 21.6059 20.9382 22.1476 21.4487C22.6704 21.9413 23.1651 22.6027 23.6154 23.2565C23.8502 23.5974 24.0279 23.8688 24.2296 24.1645C24.407 24.4245 24.5995 24.6985 24.7802 24.898C24.864 24.9905 25.0057 25.1365 25.1943 25.2445C25.379 25.3503 25.8612 25.5484 26.3569 25.2293C26.7451 24.9795 26.8414 24.5801 26.8692 24.4529C26.9089 24.2714 26.9184 24.0795 26.9184 23.9076H24.9184ZM20.8673 18.7479C19.7853 18.7479 18.8823 19.3647 18.2155 19.9931C17.5296 20.6394 16.9359 21.4487 16.4722 22.122C16.25 22.4446 16.0143 22.8008 15.8528 23.0375C15.6671 23.3098 15.5469 23.4728 15.472 23.5556C15.428 23.6042 15.4562 23.5607 15.5464 23.509C15.6327 23.4596 16.0317 23.2718 16.4601 23.5475C16.6329 23.6587 16.7221 23.7974 16.7626 23.8756C16.803 23.9538 16.8164 24.0125 16.8193 24.0259C16.8245 24.0497 16.8163 24.0228 16.8163 23.9076H14.8163C14.8163 24.0795 14.8258 24.2714 14.8655 24.4529C14.8933 24.5801 14.9896 24.9795 15.3778 25.2293C15.8735 25.5484 16.3557 25.3503 16.5404 25.2445C16.729 25.1365 16.8707 24.9905 16.9545 24.898C17.1352 24.6985 17.3277 24.4245 17.5051 24.1645C17.7068 23.8688 17.8845 23.5974 18.1193 23.2565C18.5696 22.6027 19.0643 21.9413 19.5871 21.4487C20.1288 20.9382 20.5546 20.7479 20.8673 20.7479V18.7479ZM16.8163 23.9076C16.8163 22.3354 18.4396 20.7479 20.8673 20.7479V18.7479C17.7159 18.7479 14.8163 20.8851 14.8163 23.9076H16.8163ZM20.8673 20.7479C23.2951 20.7479 24.9184 22.3354 24.9184 23.9076H26.9184C26.9184 20.8851 24.0188 18.7479 20.8673 18.7479V20.7479ZM51.1837 23.9076C51.1837 24.0228 51.1755 24.0497 51.1807 24.0259C51.1836 24.0125 51.197 23.9538 51.2374 23.8756C51.2779 23.7974 51.3671 23.6587 51.5399 23.5475C51.9683 23.2718 52.3673 23.4596 52.4536 23.509C52.5438 23.5607 52.572 23.6042 52.528 23.5556C52.4531 23.4728 52.3329 23.3098 52.1472 23.0375C51.9857 22.8008 51.75 22.4446 51.5278 22.122C51.0641 21.4487 50.4703 20.6394 49.7845 19.9931C49.1177 19.3647 48.2147 18.7479 47.1327 18.7479V20.7479C47.4454 20.7479 47.8712 20.9382 48.4129 21.4487C48.9357 21.9413 49.4304 22.6027 49.8807 23.2565C50.1155 23.5974 50.2932 23.8688 50.4949 24.1645C50.6723 24.4245 50.8648 24.6985 51.0455 24.898C51.1293 24.9905 51.271 25.1365 51.4596 25.2445C51.6443 25.3503 52.1265 25.5484 52.6222 25.2293C53.0104 24.9795 53.1067 24.5801 53.1345 24.4529C53.1742 24.2714 53.1837 24.0795 53.1837 23.9076H51.1837ZM47.1327 18.7479C46.0506 18.7479 45.1477 19.3647 44.4808 19.9931C43.795 20.6394 43.2012 21.4487 42.7375 22.122C42.5153 22.4446 42.2796 22.8008 42.1181 23.0375C41.9324 23.3098 41.8122 23.4728 41.7373 23.5556C41.6933 23.6042 41.7215 23.5607 41.8117 23.509C41.898 23.4596 42.297 23.2718 42.7254 23.5475C42.8982 23.6587 42.9874 23.7974 43.0279 23.8756C43.0683 23.9538 43.0817 24.0125 43.0847 24.0259C43.0898 24.0497 43.0816 24.0228 43.0816 23.9076H41.0816C41.0816 24.0795 41.0911 24.2714 41.1308 24.4529C41.1586 24.5801 41.2549 24.9795 41.6431 25.2293C42.1388 25.5484 42.621 25.3503 42.8057 25.2445C42.9943 25.1365 43.136 24.9905 43.2198 24.898C43.4005 24.6985 43.593 24.4245 43.7704 24.1645C43.9721 23.8688 44.1498 23.5974 44.3846 23.2565C44.8349 22.6027 45.3296 21.9413 45.8524 21.4487C46.3941 20.9382 46.8199 20.7479 47.1327 20.7479V18.7479ZM43.0816 23.9076C43.0816 22.3354 44.7049 20.7479 47.1327 20.7479V18.7479C43.9812 18.7479 41.0816 20.8851 41.0816 23.9076H43.0816ZM47.1327 20.7479C49.5604 20.7479 51.1837 22.3354 51.1837 23.9076H53.1837C53.1837 20.8851 50.2841 18.7479 47.1327 18.7479V20.7479ZM12.7755 28.0672V2H10.7755V28.0672H12.7755ZM11.6391 2.99065C13.7254 3.27803 16.8535 4.0029 19.0047 4.88347C19.5377 5.10166 19.9891 5.32076 20.3401 5.53346C20.7043 5.75409 20.8981 5.93082 20.9811 6.04125C21.0479 6.13012 20.9615 6.05361 21.0095 5.90761C21.0354 5.82881 21.0408 5.92672 20.6957 6.13046L21.7125 7.85274C22.2247 7.55031 22.7125 7.13107 22.9094 6.53247C23.1284 5.86668 22.9015 5.26773 22.5801 4.83987C22.2748 4.43356 21.8326 4.09927 21.3765 3.82293C20.9073 3.53866 20.3543 3.27485 19.7623 3.03254C17.4136 2.0711 14.1126 1.31249 11.912 1.00935L11.6391 2.99065ZM21.2041 7.9916L48.1429 7.99161V5.99161L21.2041 5.9916V7.9916ZM13.1365 11.6761C18.2584 11.6041 23.5232 13.4474 27.498 16.3133C31.497 19.1967 34.0101 22.9718 34.0101 26.6807H36.0101C36.0101 22.0702 32.9348 17.7678 28.6677 14.691C24.3762 11.5968 18.6972 9.59768 13.1083 9.67634L13.1365 11.6761ZM36.0101 26.6807C36.0101 19.6413 43.1991 11.8597 56.2385 11.6762L56.2104 9.67636C42.4729 9.86971 34.0101 18.1906 34.0101 26.6807H36.0101ZM56.2245 11.5966C60.1171 11.5966 62.9832 11.2542 64.9052 10.4434C65.8841 10.0306 66.6738 9.47356 67.2151 8.7267C67.7636 7.97 68 7.09696 68 6.15966H66C66 6.74757 65.8576 7.19176 65.5958 7.55297C65.3268 7.92403 64.8748 8.28562 64.1279 8.60067C62.5984 9.24583 60.0768 9.59664 56.2245 9.59664V11.5966ZM11.7755 9.87395C7.92324 9.87395 5.40158 9.52314 3.87207 8.87798C3.12515 8.56293 2.67318 8.20134 2.40423 7.83028C2.14243 7.46907 2 7.02488 2 6.43697H0C0 7.37428 0.236401 8.24731 0.784862 9.00401C1.32619 9.75087 2.11592 10.3079 3.09477 10.7208C5.01679 11.5315 7.88288 11.8739 11.7755 11.8739V9.87395ZM5.30791 53.1646C15.5104 50.6667 19.7078 45.2416 20.5098 42.4899L18.5896 41.9303C18.0446 43.8004 14.5645 48.8392 4.83229 51.222L5.30791 53.1646Z" fill="white"/>
</svg>
